<?xml version="1.0" encoding="UTF-8" standalone="no"?>
<!-- Created with Inkscape (http://www.inkscape.org/) -->

<svg
   xmlns:dc="http://purl.org/dc/elements/1.1/"
   xmlns:cc="http://creativecommons.org/ns#"
   xmlns:rdf="http://www.w3.org/1999/02/22-rdf-syntax-ns#"
   xmlns:svg="http://www.w3.org/2000/svg"
   xmlns="http://www.w3.org/2000/svg"
   xmlns:sodipodi="http://sodipodi.sourceforge.net/DTD/sodipodi-0.dtd"
   xmlns:inkscape="http://www.inkscape.org/namespaces/inkscape"
   width="868.20001"
   height="855.59998"
   id="svg3117"
   version="1.1"
   inkscape:version="0.48.4 r9939"
   sodipodi:docname="mountain.svg">
  <defs
     id="defs3119">
    <clipPath
       clipPathUnits="userSpaceOnUse"
       id="clipPath4446-2">
      <rect
         style="fill:#0ea5b4;fill-opacity:1;stroke:#ffffff;stroke-width:3.9000001;stroke-linecap:round;stroke-linejoin:round;stroke-miterlimit:4;stroke-opacity:1;stroke-dasharray:none;stroke-dashoffset:0"
         id="rect4448-1"
         width="751.55347"
         height="1608.1628"
         x="1754.3137"
         y="-1821.5695"
         ry="32.142876" />
    </clipPath>
    <clipPath
       clipPathUnits="userSpaceOnUse"
       id="clipPath5364-4">
      <path
         id="path5366-3"
         d="m 4331.6481,-858.93407 c -161.95,0 -293.2364,131.28643 -293.2364,293.23646 0,161.95002 131.2864,293.23645 293.2364,293.23645 161.95,0 293.2365,-131.28643 293.2365,-293.23645 0,-161.95003 -131.2865,-293.23646 -293.2365,-293.23646 z m -0.2005,279.00418 c 7.9242,0 14.3469,6.42273 14.3469,14.34682 0,7.92409 -6.4227,14.34682 -14.3469,14.34682 -7.924,0 -14.3467,-6.42273 -14.3467,-14.34682 0,-7.92409 6.4227,-14.34682 14.3467,-14.34682 z"
         style="fill:#000000;fill-opacity:1;stroke:none"
         inkscape:connector-curvature="0" />
    </clipPath>
    <filter
       color-interpolation-filters="sRGB"
       inkscape:collect="always"
       id="filter5358-3"
       x="-0.025545701"
       width="1.0510914"
       y="-0.21212868"
       height="1.4242574">
      <feGaussianBlur
         inkscape:collect="always"
         stdDeviation="6.8168437"
         id="feGaussianBlur5360-0" />
    </filter>
    <clipPath
       clipPathUnits="userSpaceOnUse"
       id="clipPath5007">
      <rect
         style="fill:#088f9d;fill-opacity:1;stroke:none"
         id="rect5009"
         width="868.16962"
         height="855.04523"
         x="717.48907"
         y="-1003.5263"
         ry="28.392857" />
    </clipPath>
  </defs>
  <sodipodi:namedview
     id="base"
     pagecolor="#ffffff"
     bordercolor="#666666"
     borderopacity="1.0"
     inkscape:pageopacity="0.0"
     inkscape:pageshadow="2"
     inkscape:zoom="0.35"
     inkscape:cx="-714.84037"
     inkscape:cy="-136.99536"
     inkscape:document-units="px"
     inkscape:current-layer="g3151"
     showgrid="false"
     fit-margin-top="0"
     fit-margin-left="0"
     fit-margin-right="0"
     fit-margin-bottom="0"
     inkscape:window-width="1301"
     inkscape:window-height="744"
     inkscape:window-x="65"
     inkscape:window-y="24"
     inkscape:window-maximized="1" />
  <metadata
     id="metadata3122">
    <rdf:RDF>
      <cc:Work
         rdf:about="">
        <dc:format>image/svg+xml</dc:format>
        <dc:type
           rdf:resource="http://purl.org/dc/dcmitype/StillImage" />
        <dc:title></dc:title>
      </cc:Work>
    </rdf:RDF>
  </metadata>
  <g
     inkscape:label="Layer 1"
     inkscape:groupmode="layer"
     id="layer1"
     transform="translate(-1089.8404,460.23315)">
    <g
       transform="translate(978.9529,-164.14409)"
       id="g3151">
      <g
         inkscape:export-ydpi="51.788765"
         inkscape:export-xdpi="51.788765"
         inkscape:export-filename="/home/benjamin/Workspace/Website/img/console.png"
         transform="translate(478.69464,594.16094)"
         id="g4272">
        <g
           transform="translate(-602.85717,-1060)"
           id="masked"
           mask="url(#bg1)">
          <g
             id="Calque.__203">
            <path
               d="m 1094.65,178.35 c -5.7,-5.75 -12.6,-8.6 -20.65,-8.6 l -454.1,0 -355.6,0 c -6.9,0 -12.95,2.1 -18.1,6.3 -0.85,0.7 -1.7,1.45 -2.55,2.3 -5.75,5.7 -8.6,12.6 -8.6,20.65 l 0,55.1 868.2,0 0,-4 0,-51.1 q 0,-12.1 -8.6,-20.65 z"
               id="path2"
               inkscape:connector-curvature="0"
               style="fill:#333333;fill-opacity:1" />
            <path
               d="m 1103.25,258.15 0,-4.05 -868.2,0 0,742 c 0,8.05 2.85,14.95 8.6,20.65 5.7,5.75 12.6,8.6 20.65,8.6 l 69.8,0 5.25,0 339.6,0 395.05,0 c 6.2,0 11.7,-1.7 16.45,-5.05 1.45,-1.05 2.85,-2.2 4.2,-3.55 5.75,-5.7 8.6,-12.6 8.6,-20.65 l 0,-343 0,-344.95 0,-50 z"
               id="path3"
               inkscape:connector-curvature="0"
               style="fill:#04555c;fill-opacity:1" />
          </g>
          <g
             id="Calque.__204">
            <g
               id="shape8">
              <path
                 inkscape:connector-curvature="0"
                 id="path4517"
                 d="m 358.4,197.2 q -6.15,-6.15 -14.85,-6.15 c -5.8,0 -10.75,2.05 -14.85,6.15 -4.1,4.1 -6.15,9.05 -6.15,14.85 0,5.8 2.05,10.75 6.15,14.85 4.1,4.1 9.05,6.15 14.85,6.15 5.8,0 10.75,-2.05 14.85,-6.15 4.1,-4.1 6.15,-9.05 6.15,-14.85 0,-5.8 -2.05,-10.75 -6.15,-14.85 z"
                 style="fill:#58564e;fill-opacity:1" />
              <path
                 inkscape:connector-curvature="0"
                 id="path4515"
                 d="m 404.05,191.05 c -5.8,0 -10.75,2.05 -14.85,6.15 -4.1,4.1 -6.15,9.05 -6.15,14.85 0,5.8 2.05,10.75 6.15,14.85 4.1,4.1 9.05,6.15 14.85,6.15 5.8,0 10.75,-2.05 14.85,-6.15 4.1,-4.1 6.15,-9.05 6.15,-14.85 0,-5.8 -2.05,-10.75 -6.15,-14.85 -4.1,-4.1 -9.05,-6.15 -14.85,-6.15 z"
                 style="fill:#58564e;fill-opacity:1" />
              <path
                 inkscape:connector-curvature="0"
                 id="path4"
                 d="m 283.05,191.05 c -5.8,0 -10.75,2.05 -14.85,6.15 -4.1,4.1 -6.15,9.05 -6.15,14.85 0,5.8 2.05,10.75 6.15,14.85 4.1,4.1 9.05,6.15 14.85,6.15 5.8,0 10.75,-2.05 14.85,-6.15 4.1,-4.1 6.15,-9.05 6.15,-14.85 0,-5.8 -2.05,-10.75 -6.15,-14.85 -4.1,-4.1 -9.05,-6.15 -14.85,-6.15 z"
                 style="fill:#ff5800;fill-opacity:1" />
            </g>
          </g>
          <g
             id="Calque.__205">
            <g
               id="shape14">
              <path
                 style="fill:#ffffff;fill-opacity:0.07843137"
                 inkscape:connector-curvature="0"
                 id="path9"
                 d="m 1094.65,178.35 c -5.7,-5.75 -12.6,-8.6 -20.65,-8.6 l -454.1,0 483.35,483.35 0,-344.95 0,-50 0,-8.05 0,-51.1 q 0,-12.1 -8.6,-20.65 z" />
            </g>
          </g>
        </g>
        <g
           transform="translate(-602.85717,-1060)"
           id="Calque.__206">
          <g
             id="shape18">
            <path
               style="fill:#ffffff;fill-opacity:1"
               inkscape:connector-curvature="0"
               id="path11"
               d="m 348.6,350.3 q -5.2,-5.2 -12.55,-5.2 c -4.9,0 -9.1,1.75 -12.6,5.25 -3.45,3.45 -5.2,7.65 -5.2,12.55 0,4.9 1.75,9.1 5.2,12.55 l 54.45,54.45 -54.4,54.4 c -3.5,3.5 -5.25,7.7 -5.3,12.6 0.05,4.9 1.8,9.1 5.25,12.55 3.5,3.45 7.7,5.2 12.55,5.25 4.95,0 9.15,-1.75 12.65,-5.25 l 60.5,-60.55 c 12.7,-12.65 12.7,-25.35 0,-38.05 L 348.6,350.3 z m 237.15,134.1 c -3.5,-3.5 -7.75,-5.25 -12.7,-5.25 l 0,-0.025 -116.8,0 0,0.025 c -4.95,0 -9.15,1.75 -12.65,5.25 -3.5,3.5 -5.25,7.7 -5.25,12.65 0,4.95 1.75,9.2 5.25,12.7 3.5,3.5 7.7,5.25 12.65,5.25 l 0,-0.025 116.8,0 0,0.025 c 4.95,0 9.2,-1.75 12.7,-5.25 3.5,-3.5 5.25,-7.75 5.25,-12.7 0,-4.95 -1.75,-9.15 -5.25,-12.65 z" />
          </g>
        </g>
      </g>
    </g>
  </g>
</svg>
