<?xml version="1.0" encoding="UTF-8" standalone="no"?>
<!-- Created with Inkscape (http://www.inkscape.org/) -->

<svg
   xmlns:dc="http://purl.org/dc/elements/1.1/"
   xmlns:cc="http://creativecommons.org/ns#"
   xmlns:rdf="http://www.w3.org/1999/02/22-rdf-syntax-ns#"
   xmlns:svg="http://www.w3.org/2000/svg"
   xmlns="http://www.w3.org/2000/svg"
   version="1.1"
   width="868.91431"
   height="855.91492"
   id="svg3117">
  <defs
     id="defs3119">
    <clipPath
       id="clipPath4446-2">
      <rect
         width="751.55347"
         height="1608.1628"
         ry="32.142876"
         x="1754.3137"
         y="-1821.5695"
         id="rect4448-1"
         style="fill:#0ea5b4;fill-opacity:1;stroke:#ffffff;stroke-width:3.9000001;stroke-linecap:round;stroke-linejoin:round;stroke-miterlimit:4;stroke-opacity:1;stroke-dasharray:none;stroke-dashoffset:0" />
    </clipPath>
    <clipPath
       id="clipPath5364-4">
      <path
         d="m 4331.6481,-858.93407 c -161.95,0 -293.2364,131.28643 -293.2364,293.23646 0,161.95002 131.2864,293.23645 293.2364,293.23645 161.95,0 293.2365,-131.28643 293.2365,-293.23645 0,-161.95003 -131.2865,-293.23646 -293.2365,-293.23646 z m -0.2005,279.00418 c 7.9242,0 14.3469,6.42273 14.3469,14.34682 0,7.92409 -6.4227,14.34682 -14.3469,14.34682 -7.924,0 -14.3467,-6.42273 -14.3467,-14.34682 0,-7.92409 6.4227,-14.34682 14.3467,-14.34682 z"
         id="path5366-3"
         style="fill:#000000;fill-opacity:1;stroke:none" />
    </clipPath>
    <filter
       x="-0.025545701"
       y="-0.21212868"
       width="1.0510914"
       height="1.4242574"
       color-interpolation-filters="sRGB"
       id="filter5358-3">
      <feGaussianBlur
         id="feGaussianBlur5360-0"
         stdDeviation="6.8168437" />
    </filter>
    <filter
       x="-0.1446334"
       y="-0.14465232"
       width="1.2892668"
       height="1.2893046"
       color-interpolation-filters="sRGB"
       id="filter4509">
      <feGaussianBlur
         id="feGaussianBlur4511"
         stdDeviation="8.526198" />
    </filter>
    <filter
       color-interpolation-filters="sRGB"
       id="filter5271-2">
      <feGaussianBlur
         id="feGaussianBlur5273-9"
         stdDeviation="4.7126559" />
    </filter>
  </defs>
  <metadata
     id="metadata3122">
    <rdf:RDF>
      <cc:Work
         rdf:about="">
        <dc:format>image/svg+xml</dc:format>
        <dc:type
           rdf:resource="http://purl.org/dc/dcmitype/StillImage" />
        <dc:title></dc:title>
      </cc:Work>
    </rdf:RDF>
  </metadata>
  <g
     transform="translate(-166.59664,-138.41502)"
     id="layer1">
    <g
       transform="translate(978.9529,-164.14409)"
       id="g3151">
      <rect
         width="868.91431"
         height="855.91492"
         ry="32.142876"
         x="-812.35626"
         y="302.55911"
         id="rect5168-2"
         style="fill:#088f9d;fill-opacity:1;stroke:none" />
      <path
         d="m 828.57141,-847.63776 a 414.28571,414.28571 0 1 1 -828.57141,0 414.28571,414.28571 0 1 1 828.57141,0 z"
         transform="matrix(0.8,0,0,0.8,-784.87839,1412.9521)"
         id="path4493"
         style="fill:#ffffff;fill-opacity:1;stroke:none" />
      <path
         d="m -1378.0236,-657.13424 c -58.2998,0 -105.5703,47.2706 -105.5703,105.57036 0,58.29975 47.2705,105.54291 105.5703,105.54291 58.2999,0 105.5704,-47.24316 105.5704,-105.54291 0,-58.29976 -47.2705,-105.57036 -105.5704,-105.57036 z m 0,91.79435 c 7.5938,0 13.7487,6.1549 13.7487,13.74856 0,7.59367 -6.1549,13.74858 -13.7487,13.74858 -7.5937,0 -13.7486,-6.15491 -13.7486,-13.74858 0,-7.59366 6.1549,-13.74856 13.7486,-13.74856 z"
         transform="matrix(0.94642858,0,0,0.94642858,926.16483,1252.7073)"
         id="path5182-3-2"
         style="opacity:0.11000001;fill:#000000;fill-opacity:1;stroke:none;filter:url(#filter5271-2)" />
      <g
         transform="matrix(1.0188679,0,0,1.0188679,-1133.3199,122.06461)"
         id="g4484">
        <g
           id="g4480">
          <path
             d="m 667.9351,299.73773 c -167.2634,0 -302.8571,135.59376 -302.8571,302.85714 0,167.26338 135.5937,302.85714 302.8571,302.85714 167.2634,0 302.8571,-135.59376 302.8571,-302.85714 0,-167.26338 -135.5937,-302.85714 -302.8571,-302.85714 z m -0.207,288.15792 c 8.1841,0 14.8175,6.63345 14.8175,14.81752 0,8.18407 -6.6334,14.81753 -14.8175,14.81753 -8.1841,0 -14.8176,-6.63346 -14.8176,-14.81753 0,-8.18407 6.6335,-14.81752 14.8176,-14.81752 z"
             id="path5172-5"
             style="fill:#000000;fill-opacity:1;stroke:none" />
          <path
             d="m 4010.3125,-603.34375 0,77.125 255.875,-31.40625 c -0.2344,-2.3237 -0.375,-4.70412 -0.375,-7.09375 0,-2.92001 0.2145,-5.77431 0.5625,-8.59375 l -256.0625,-30.03125 z m 640.4375,0 -261.1875,30.84375 c 0.285,2.5572 0.4375,5.14286 0.4375,7.78125 0,2.10122 -0.099,4.19915 -0.2812,6.25 l 261.0312,32.25 0,-77.125 z"
             transform="matrix(1.0328086,0,0,1.0328086,-3805.8285,1186.8523)"
             clip-path="url(#clipPath5364-4)"
             id="path5192-5"
             style="fill:#f6f6f6;fill-opacity:0.26041667;stroke:#000000;stroke-width:1px;stroke-linecap:butt;stroke-linejoin:miter;stroke-opacity:1;filter:url(#filter5358-3)" />
        </g>
        <path
           d="m 667.72808,531.99672 c -39.06542,0 -70.74052,31.67501 -70.74052,70.74043 0,39.06543 31.6751,70.72205 70.74052,70.72205 39.06549,0 70.74046,-31.65662 70.74046,-70.72205 0,-39.06542 -31.67497,-70.74043 -70.74046,-70.74043 z m 0,61.50943 c 5.08832,0 9.21266,4.12427 9.21266,9.21262 0,5.08834 -4.12434,9.21262 -9.21266,9.21262 -5.08838,0 -9.21266,-4.12428 -9.21266,-9.21262 0,-5.08835 4.12428,-9.21262 9.21266,-9.21262 z"
           id="path4495"
           style="opacity:0.24090911;fill:#622200;fill-opacity:1;stroke:none;filter:url(#filter4509)" />
        <path
           d="m 667.7281,494.22181 c -59.9288,0 -108.5204,48.59145 -108.5204,108.52025 0,59.92881 48.5916,108.49205 108.5204,108.49205 59.9289,0 108.5203,-48.56324 108.5203,-108.49205 0,-59.9288 -48.5914,-108.52025 -108.5203,-108.52025 z m 0,94.35931 c 7.8058,0 14.1328,6.32689 14.1328,14.13274 0,7.80584 -6.327,14.13274 -14.1328,14.13274 -7.8059,0 -14.1328,-6.3269 -14.1328,-14.13274 0,-7.80585 6.3269,-14.13274 14.1328,-14.13274 z"
           id="path5182-6"
           style="fill:#ff5800;fill-opacity:1;stroke:none" />
      </g>
      <path
         d="m 1927.6107,-305.2013 c -11.6993,-5.8209 -13.5564,-6.2443 -17.5,-3.9899 -3.4214,1.9558 -9.5918,1.8542 -13.0957,-0.2156 -1.5974,-0.9436 -2.9043,-2.0686 -2.9043,-2.5 0,-0.4314 -0.4551,-0.7844 -1.0113,-0.7844 -2.0709,0 -13.0995,-8.3135 -14.4225,-10.8718 -0.7549,-1.46 -1.6893,-4.7658 -2.0762,-7.3463 -0.8028,-5.3535 -1.3753,-6.1973 -7.2701,-10.7164 -4.471,-3.4275 -7.2199,-7.5902 -7.2199,-10.9328 0,-1.0816 1.6432,-5.0415 3.6516,-8.7996 2.0084,-3.7582 5.5281,-10.4331 7.8216,-14.8331 5.6369,-10.8145 17.4171,-31.0702 23.2969,-40.0584 0.6985,-1.0679 1.9196,-3.3502 2.7134,-5.0719 2.6652,-5.7806 10.2496,-10.3465 17.2156,-10.3641 2.0296,-0.01 7.3009,-5.4459 7.3009,-7.5355 0,-0.4627 0.8557,-1.7702 1.9016,-2.9056 1.0459,-1.1355 4.2273,-6.1145 7.0699,-11.0645 2.8426,-4.95 5.5789,-9.675 6.0807,-10.5 3.1408,-5.1634 11.7734,-20.5844 14.8347,-26.5 3.6045,-6.9654 4.6764,-9.4811 11.6717,-27.3951 3.9308,-10.0661 13.5908,-25.7385 18.7729,-30.4572 1.7427,-1.5868 4.5943,-3.4974 6.3369,-4.2457 2.3724,-1.0188 4.6845,-3.8704 9.203,-11.3501 3.3191,-5.4942 6.5131,-11.916 7.0978,-14.2707 1.3862,-5.5826 4.8527,-12.4389 8.2129,-16.244 1.4751,-1.6705 3.739,-4.6122 5.0308,-6.5372 1.7119,-2.5511 3.6957,-3.9288 7.3169,-5.0815 4.4338,-1.4113 5.3353,-2.2182 8.3797,-7.5 1.8763,-3.2552 7.6142,-13.055 12.751,-21.7775 5.1367,-8.7224 9.3395,-16.2599 9.3395,-16.75 0,-0.49 0.45,-0.891 1,-0.891 0.55,0 1,-0.3955 1,-0.8788 0,-0.4834 1.5941,-3.5209 3.5424,-6.75 5.4206,-8.984 8.0043,-14.7168 13.0119,-28.8712 9.8723,-27.9047 11.432,-33.3576 13.8729,-48.5 4.8839,-30.2992 5.4433,-39.0922 4.1669,-65.5 -0.829,-17.1503 -2.4041,-27.9668 -6.0434,-41.5 -1.2571,-4.675 -3.0195,-11.875 -3.9164,-16 -2.8625,-13.16494 -5.7166,-24.846 -8.0629,-33 -1.8394,-6.39234 -4.4637,-18.44034 -8.6039,-39.5 -4.9336,-25.09569 -7.8843,-39.45084 -10.5859,-51.5 -1.4182,-6.325 -2.7793,-12.625 -3.0248,-14 -0.2454,-1.375 -1.7852,-8.125 -3.4217,-15 -2.8996,-12.1812 -3.913,-16.5155 -5.9038,-25.25 -0.9149,-4.0142 -4.3208,-18.3202 -11.1301,-46.75 -4.4721,-18.6716 -4.9294,-19.9036 -8.0768,-21.7628 -1.5534,-0.9176 -2.8244,-1.9492 -2.8244,-2.2923 0,-0.3431 -1.0459,-1.1004 -2.3243,-1.6829 -3.9064,-1.7799 -12.1127,-20.7545 -12.1523,-28.0986 -0.019,-3.5276 0.5,-4.7868 2.7824,-6.75 1.5431,-1.3274 3.4556,-2.4134 4.25,-2.4134 1.3281,0 1.9018,-2.2432 1.5345,-6 -0.4719,-4.8278 -1.3708,-6.1216 -5.651,-8.1335 -5.2785,-2.4812 -7.4393,-6.4953 -7.4393,-13.8196 0,-5.7202 -0.6056,-6.1138 -14,-9.0984 -5.225,-1.1643 -11.975,-3.0042 -15,-4.0888 -7.4712,-2.6786 -37.001,-17.5638 -39.5645,-19.9433 -1.1354,-1.054 -2.4467,-1.9164 -2.914,-1.9164 -1.4875,0 -32.3619,-31.9217 -33.0884,-34.2108 -0.3834,-1.2077 -1.2001,-2.7638 -1.8151,-3.4579 -2.5712,-2.902 -3.618,-4.2755 -3.618,-4.7467 0,-0.2749 -2.484,-4.2314 -5.5199,-8.7922 -7.4095,-11.131 -10.5961,-17.9478 -15.3293,-32.7924 -3.3273,-10.4356 -4.176,-14.8698 -5.1384,-26.8489 -1.3134,-16.3489 -1.5194,-33.4672 -0.4897,-40.7122 1.3971,-9.831 7.3002,-34.6036 8.552,-35.8889 0.5089,-0.5225 0.9253,-1.7588 0.9253,-2.7473 0,-0.9886 1.35,-4.6546 3,-8.1469 1.65,-3.4922 3,-7.1 3,-8.0173 0,-1.6309 -3.7491,-4.4246 -9.25,-6.8928 -1.5125,-0.6787 -2.75,-1.5741 -2.75,-1.9898 0,-0.4158 -0.5201,-0.7559 -1.1556,-0.7559 -0.6356,0 -2.5481,-1.0342 -4.25,-2.2983 -1.702,-1.264 -6.0194,-3.5868 -9.5944,-5.1616 -3.575,-1.5749 -8.75,-4.5129 -11.5,-6.5289 -2.75,-2.016 -5.7616,-4.0842 -6.6925,-4.5959 -0.9309,-0.5117 -4.3569,-3.4672 -7.6133,-6.5677 -6.5473,-6.2338 -7.7203,-9.2921 -5.7534,-15.0011 1.9762,-5.7359 12.2189,-21.3064 16.6486,-25.3083 5.9389,-5.3655 7.818,-5.804 15.0167,-3.5043 3.3849,1.0814 6.7283,1.9661 7.4296,1.9661 0.7014,0 3.1915,1.0125 5.5335,2.25 3.7999,2.0078 6.7723,4.4098 14.7946,11.9557 1.3002,1.2229 3.18,2.6894 4.1774,3.2589 0.9975,0.5694 4.4447,2.8821 7.6605,5.1391 3.2158,2.257 7.4765,4.6929 9.4683,5.4131 3.3917,1.2265 4.0563,1.0996 10.4757,-2.0003 9.6068,-4.639 15.4702,-7.5546 25.9196,-12.8888 9.4185,-4.808 13.8057,-6.8282 26.4347,-12.1725 4.125,-1.7456 8.85,-3.7617 10.5,-4.4803 2.8494,-1.2409 14.0256,-4.7812 23.25,-7.3648 2.3375,-0.6547 4.2453,-1.5098 4.2397,-1.9002 -0.01,-0.3905 -1.1684,-1.6099 -2.5838,-2.7099 -4.4313,-3.4439 -10.5388,-9.8889 -11.9604,-12.6212 -1.0785,-2.0732 -1.4187,-11.7966 -1.6269,-46.5 -0.4123,-68.7294 -0.4318,-68.4323 4.8308,-73.6948 5.3456,-5.3456 10.6018,-7.3634 22.211,-8.5265 5.6546,-0.5665 10.9243,-1.5638 11.7104,-2.2162 1.1111,-0.9222 1.4292,-4.2222 1.4292,-14.8294 0,-11.3502 0.3108,-14.2287 1.8495,-17.1275 2.8739,-5.4145 8.2301,-7.8134 20.267,-9.0769 18.1673,-1.9072 33.0358,2.4262 36.4622,10.6267 0.9902,2.3697 1.4213,7.4957 1.4213,16.8985 0,15.7389 -0.915,14.4739 12.6118,17.4362 4.8885,1.0705 10.7298,3.0005 12.9807,4.2888 5.2678,3.0149 10.8434,7.9325 11.7968,10.4046 0.411,1.0657 0.7017,28.7065 0.646,61.424 -0.1012,59.3942 -0.1047,59.4912 -2.2802,62.6662 -3.0278,4.4187 -16.6339,12.2922 -23.9282,13.8465 -0.9202,0.1961 -2.9087,1.0039 -4.4188,1.7951 l -2.7456,1.4386 2.4187,1.494 c 7.7131,4.764 18.0715,10.7733 18.5703,10.7733 0.8318,0 10.5121,7.0395 12.6375,9.1899 0.9839,0.9956 2.2072,1.8101 2.7184,1.8101 0.5112,0 4.4312,3.5355 8.711,7.8568 4.2799,4.3212 8.859,8.4218 10.1759,9.1124 3.1521,1.653 10.6898,8.638 13.344,12.3654 1.1587,1.6273 2.4345,5.0302 2.8351,7.5621 0.4663,2.9471 3.1026,8.627 7.3275,15.787 3.6295,6.151 6.5991,11.8946 6.5991,12.7636 0,0.8689 0.426,2.3612 0.9466,3.3163 0.5207,0.955 1.6964,4.1425 2.6126,7.0834 1.934,6.2072 1.8775,6.2007 14.3449,1.6683 9.3597,-3.4026 16.0955,-4.0993 24.7545,-2.5604 20.987,3.7297 32.1964,11.8125 41.6668,30.0451 4.702,9.0524 5.3683,11.0775 6.7448,20.5 2.1754,14.8921 -6.3323,40.2699 -16.652,49.6716 -1.605,1.4622 -4.7182,4.2754 -6.9182,6.2517 -7.72,6.9347 -24.3313,11.0956 -41.4054,10.3715 -7.9901,-0.3389 -11.7936,-0.9835 -15.4717,-2.6221 -6.1911,-2.7581 -8.4233,-2.7402 -9.6601,0.077 -0.5432,1.2375 -1.9517,3.825 -3.13,5.75 -1.1783,1.925 -2.6352,4.4061 -3.2376,5.5134 -5.3306,9.7997 -21.8402,32.5959 -27.3813,37.8078 -3.613,3.3983 -7.7267,7.3108 -9.1415,8.6944 -5.5537,5.4309 -17.9616,14.8544 -26.972,20.4844 -0.8802,0.55 -1.8254,1.2625 -2.1004,1.5832 -0.275,0.3208 -3.2,1.8276 -6.5,3.3485 -3.3,1.5209 -8.25,3.8176 -11,5.1038 -8.2584,3.8626 -12.6261,5.4645 -14.8996,5.4645 -1.1855,0 -3.2041,0.7346 -4.486,1.6324 -2.1222,1.4865 -2.2848,2.1792 -1.8193,7.75 0.2812,3.3647 1.025,9.2676 1.6529,13.1176 0.6279,3.85 2.0468,12.85 3.1532,20 1.7865,11.545 3.3752,19.2848 8.4162,41 0.766,3.3 2.0787,9.15 2.917,13 4.7491,21.8112 6.1938,27.7081 9.1926,37.5211 1.3268,4.3416 2.5052,9.2831 5.8377,24.4789 0.8443,3.85 2.4248,10.6 3.5122,15 1.9361,7.8342 7.4361,32.079 9.0741,40 0.4549,2.2 1.7942,7.825 2.976,12.5 1.1819,4.675 2.7504,11.70111 3.4857,15.61358 0.7352,3.91247 1.7997,8.86247 2.3654,11 1.4711,5.5575 7.1463,33.43673 8.7302,42.88642 0.7374,4.4 1.8323,9.8 2.4329,12 1.1759,4.30736 5.7009,23.39746 6.5184,27.5 0.274,1.375 0.7492,3.175 1.0559,4 2.8534,7.67405 6.2714,61.7216 5.5654,88 -0.2972,11.0596 -3.0432,30.8648 -4.9944,36.0213 -0.5159,1.3633 -1.2639,4.9537 -1.6623,7.9787 -0.8162,6.198 -6.0084,27.4405 -7.4549,30.5 -0.5201,1.1 -1.6337,4.4937 -2.4748,7.5415 -1.2061,4.3709 -12.9978,29.0596 -19.3234,40.4585 -0.6105,1.1 -2.5757,4.925 -4.3671,8.5 -3.8598,7.7024 -5.3711,10.475 -7.904,14.5 -1.0383,1.65 -2.5046,4.125 -3.2583,5.5 -5.3918,9.836 -8.1135,14.637 -8.7871,15.5 -0.4293,0.55 -2.4183,4.0885 -4.42,7.8633 -3.3994,6.4103 -3.5315,6.9826 -2.0023,8.6724 2.6833,2.965 3.0308,9.3023 0.7209,13.1477 -1.0957,1.8241 -2.8169,5.5666 -3.8247,8.3166 -1.6941,4.6224 -5.5324,10.8751 -18.7229,30.5 -2.7725,4.125 -5.9186,8.2738 -6.9912,9.2196 -1.5388,1.3568 -1.7988,2.4118 -1.2321,5 1.753,8.0071 0.5363,12.918 -5.6928,22.9779 -2.0092,3.2448 -9.6588,16.4249 -15.556,26.8025 -1.0939,1.925 -3.6189,6.3557 -5.6112,9.8461 -1.9923,3.4903 -3.6223,6.4818 -3.6223,6.6478 0,0.1659 -1.8,3.2646 -4,6.8858 -2.2,3.6213 -4,6.8944 -4,7.2735 0,0.3791 -0.6167,1.3998 -1.3704,2.2681 -2.5851,2.9781 -6.6296,11.1501 -6.6143,13.3642 0.023,3.3187 0.6862,3.9381 10.9847,10.2605 5.225,3.2077 9.65,6.1971 9.8333,6.6431 0.1834,0.446 0.7604,0.8109 1.2823,0.8109 0.5219,0 4.1969,2.0915 8.1667,4.6479 3.9697,2.5563 9.0177,5.7717 11.2177,7.1453 2.2,1.3736 6.475,4.1504 9.5,6.1707 3.025,2.0203 7.975,5.0811 11,6.8018 3.025,1.7207 7.0648,4.4444 8.9773,6.0528 2.962,2.491 3.4772,3.5519 3.4772,7.1597 0,3.2329 -0.5533,4.6834 -2.338,6.1286 -2.7364,2.2157 -7.5768,2.4446 -11.1165,0.5255 -1.375,-0.7455 -6.1,-3.2765 -10.5,-5.6245 -4.4,-2.3479 -11.7263,-6.4602 -16.2807,-9.1384 -4.5544,-2.6782 -8.5156,-4.8694 -8.8027,-4.8694 -0.2871,0 -5.3358,-2.7892 -11.2193,-6.1982 -18.6398,-10.8001 -25.2774,-13.9802 -26.7056,-12.7949 -1.4197,1.1782 -0.9149,4.4161 1.1638,7.4656 2.5919,3.8025 1.642,9.4094 -2.8746,16.9674 -2.3206,3.883 -4.5127,7.2851 -4.8714,7.5601 -0.3587,0.275 -1.8711,2.75 -3.3609,5.5 -1.4898,2.75 -4.0078,6.8 -5.5955,9 -1.5876,2.2 -2.9016,4.5625 -2.9199,5.25 -0.018,0.6875 -0.4832,1.25 -1.0332,1.25 -0.55,0 -1,0.4048 -1,0.8995 0,0.8259 -5.7767,10.1055 -7.9189,12.7208 -0.5046,0.6161 -2.4169,3.6722 -4.2493,6.7913 -6.6951,11.3958 -7.4626,12.519 -10.6097,15.5266 -4.5825,4.3793 -7.7522,4.0048 -20.7221,-2.4483 z m -750.9963,-210.6314 c -0.2843,-0.7472 -0.4014,-86.1835 -0.2603,-189.8585 l 0.2566,-188.5 10.7169,-0.25611 c 8.153,-0.19483 14.8869,-1.19614 28.1468,-4.18532 22.373,-5.04355 30.0574,-7.75854 54.6363,-19.30381 9.1039,-4.27631 21.1771,-12.05525 30,-19.32945 10.7765,-8.88489 28.593,-27.60871 35.136,-36.92531 7.6635,-10.91208 16.7273,-28.3899 22.8179,-44 8.8217,-22.6096 11.3644,-37.6085 11.2734,-66.5 -0.074,-23.3882 -2.0736,-34.8147 -10.2385,-58.5 -10.6726,-30.9596 -27.8404,-56.0952 -53.748,-78.6932 -22.2755,-19.4298 -51.9111,-35.0792 -81.7408,-43.1641 -12.8242,-3.4758 -21.2976,-4.8126 -35,-5.5217 l -12,-0.621 -0.2526,-193.3526 -0.2525,-193.3526 13.7525,0.6419 c 7.5639,0.3531 16.4526,1.0759 19.7526,1.6063 3.3,0.5304 13.875,1.8648 23.5,2.9653 19.6846,2.2506 43.8966,6.4238 58.5,10.0829 2.2,0.5513 8.275,2.0652 13.5,3.3643 14.1353,3.5146 22.3183,5.6589 24,6.2891 0.825,0.3091 1.95,0.6313 2.5,0.7159 0.55,0.085 1.675,0.4226 2.5,0.7512 3.2039,1.2761 24.7098,8.7067 28.5,9.8473 2.2,0.662 4.45,1.4752 5,1.807 0.55,0.3319 1.225,0.6491 1.5,0.705 0.275,0.056 1.4,0.4533 2.5,0.883 1.1,0.4297 4.925,1.9032 8.5,3.2744 3.575,1.3712 8.3,3.3013 10.5,4.2889 12.9947,5.8339 16.1755,7.1358 17.75,7.2649 0.9625,0.079 1.75,0.5088 1.75,0.9554 0,0.4465 1.1249,1.2396 2.4998,1.7624 9.6732,3.6777 53.924,27.1219 59.0002,31.2584 0.8285,0.6751 19.6938,12.7901 25.2913,16.2416 0.892,0.55 6.4788,4.4761 12.4152,8.7246 5.9364,4.2485 10.7935,7.4612 10.7935,7.1392 0,-0.322 0.7875,0.2974 1.75,1.3763 2.5495,2.8579 21.4439,17.7622 23.5,18.5374 0.9625,0.3628 1.75,1.0672 1.75,1.5652 0,0.498 4.1625,4.4302 9.25,8.7382 9.1543,7.7517 44.2949,42.6427 50.4283,50.0702 13.1747,15.9545 23.0676,28.4038 29.8689,37.5876 16.1804,21.8484 18.0546,24.5474 26.5692,38.2613 4.7807,7.7 9.8976,15.9156 11.3708,18.2569 1.4732,2.3414 3.7206,6.1664 4.9943,8.5 1.2736,2.3337 4.2755,7.8431 6.6708,12.2431 2.3953,4.4 5.882,11.375 7.7483,15.5 1.8663,4.125 5.3719,11.6114 7.7903,16.6364 2.4183,5.025 5.9887,13.575 7.9342,19 8.2216,22.9255 17.5347,50.2499 18.8699,55.3636 5.6667,21.7035 6.7455,26.4258 14.5078,63.5 1.0364,4.95 2.3637,15.075 2.9497,22.5 0.5859,7.425 1.5026,18.437 2.0371,24.4711 1.5766,17.8 1.314,78.9547 -0.4017,93.5289 -0.8093,6.875 -1.7442,15.2 -2.0774,18.5 -1.0181,10.0819 -9.9964,57.49677 -11.456,60.5 -0.401,0.825 -1.2788,4.2 -1.9507,7.5 -0.6719,3.3 -1.6099,7.125 -2.0845,8.5 -0.4745,1.375 -2.0787,6.55 -3.5647,11.5 -1.4861,4.95 -4.0434,12.825 -5.6828,17.5 -1.6394,4.675 -4.2283,12.35113 -5.7532,17.05807 -1.5249,4.70693 -4.439,12.35693 -6.4758,17 -2.0369,4.64306 -4.3962,10.01693 -5.2429,11.94193 -5.5794,12.68495 -23.9597,48.1392 -31.0499,59.8933 -2.3375,3.875 -4.25,7.4542 -4.25,7.9537 0,0.4994 -0.6944,1.4843 -1.543,2.1886 -0.8486,0.7043 -5.8597,7.8469 -11.1358,15.8725 -17.4096,26.4819 -42.3331,57.9415 -61.4714,77.5919 -5.3566,5.5 -12.1267,12.5256 -15.0446,15.6125 -7.5685,8.0069 -19.2177,18.6285 -36.8052,33.5587 -1.925,1.6341 -4.4436,3.6141 -5.5968,4.4 -1.1532,0.7858 -4.9782,3.9798 -8.5,7.0977 -3.5218,3.118 -8.6532,7.3676 -11.4032,9.4438 -2.75,2.0761 -5.225,4.0251 -5.5,4.331 -0.275,0.306 -1.7134,1.2313 -3.1964,2.0563 -1.4829,0.825 -6.5091,4.0663 -11.1693,7.203 -12.8226,8.6306 -38.8713,24.05 -41.1343,24.3493 -1.1,0.1454 -2.9,0.5912 -4,0.9906 -2,0.7262 -2,0.7262 0,-0.9108 2,-1.637 2,-1.637 0,-0.9644 -2.5937,0.8723 -12.5,6.3905 -12.5,6.9629 0,0.2419 0.8704,-0.026 1.9342,-0.5954 1.0639,-0.5694 2.7514,-1.0286 3.75,-1.0205 1.6006,0.013 1.566,0.1612 -0.2912,1.25 -1.1589,0.6794 -3.934,2.4548 -6.167,3.9454 -6.2799,4.192 -12.3421,5.0645 -7.476,1.076 2.3955,-1.9636 1.6565,-1.6665 -13.771,5.5356 -4.6866,2.1878 -10.5366,4.5076 -13,5.1551 -2.4635,0.6474 -9.204,3.4533 -14.979,6.2354 -11.8828,5.7243 -12.2737,5.8899 -20.5,8.6795 -6.0139,2.0394 -23.2472,8.4317 -27,10.015 -1.1,0.4641 -4.7,1.5992 -8,2.5224 -3.3,0.9232 -6.9,2.0553 -8,2.5157 -1.1,0.4604 -4.925,1.5457 -8.5,2.4118 -3.575,0.866 -8.9606,2.2651 -11.968,3.109 -3.0073,0.8439 -6.4655,1.5344 -7.6849,1.5344 -1.2193,0 -3.4837,0.5188 -5.032,1.1529 -3.1872,1.3052 -2.9782,1.254 -13.8151,3.38 -9.977,1.9572 -15.113,2.8429 -29,5.0011 -6.05,0.9403 -12.125,1.9079 -13.5,2.1503 -5.6096,0.9891 -29.5565,3.0585 -30.2938,2.6179 -0.4366,-0.2609 -1.3366,-0.03 -2,0.513 -0.6634,0.543 -6.9391,1.3056 -13.946,1.6946 -10.3024,0.5719 -12.8386,0.4473 -13.2565,-0.6513 z m 261.0132,-66.8859 c 0.2672,-0.4324 -0.4218,-0.5487 -1.5311,-0.2586 -1.1094,0.2901 -2.2356,0.8811 -2.5028,1.3134 -0.2672,0.4324 0.4218,0.5487 1.5312,0.2586 1.1093,-0.2901 2.2355,-0.8811 2.5027,-1.3134 z m -30.5169,-336.52255 c 0,-0.8223 -0.6109,-1.15286 -1.5,-0.81168 -1.8877,0.72438 -1.9333,-0.34797 -0.093,-2.18825 1.6891,-1.68912 2.2504,-25.97448 0.5764,-24.93989 -0.5409,0.33429 -0.9834,0.13125 -0.9834,-0.45121 0,-0.58246 0.45,-1.05902 1,-1.05902 1.4672,0 1.2229,-3.98592 -0.25,-4.07895 -0.8875,-0.0561 -0.8547,-0.23615 0.1131,-0.62105 1.1452,-0.45543 1.1466,-0.67597 0.01,-1.37941 -1.079,-0.66684 -1.102,-1.09009 -0.1131,-2.07895 0.912,-0.91206 1.2416,-6.96428 1.2416,-22.80109 0,-20.81015 -0.073,-21.60495 -2.0974,-22.86925 -1.1535,-0.7204 -1.8394,-1.5678 -1.5241,-1.8831 0.3152,-0.3153 1.259,0 2.0973,0.6917 1.3237,1.0986 1.5242,0.7226 1.5242,-2.8575 l 4e-4,-4.1224 -10.5437,0 -10.5437,0 0.1469,30 c 0.083,16.92238 0.5378,30 1.0437,30 0.4932,0 0.8968,0.47656 0.8968,1.05902 0,0.58246 -0.45,0.7809 -1,0.44098 -0.55,-0.33992 -1,0.0694 -1,0.9096 0,0.94705 0.57,1.30887 1.5,0.95203 0.825,-0.31659 1.5,-0.0775 1.5,0.53138 0,0.60885 0.675,1.10699 1.5,1.10699 0.825,0 1.5,0.50625 1.5,1.125 0,0.71667 -1.0889,0.90722 -3,0.525 l -3,-0.6 0,5.89167 c 0,3.6297 0.4519,6.0423 1.177,6.28401 0.7676,0.25586 0.8599,0.89364 0.2653,1.83334 -0.5014,0.79254 -0.9186,3.94062 -0.927,6.99573 l -0.015,5.55474 10.25,0.11393 c 8.129,0.0903 10.25,-0.17314 10.25,-1.27337 z m -5,-19.45005 c 0,-0.55 0.4765,-1 1.059,-1 0.5824,0 0.7809,0.45 0.441,1 -0.34,0.55 -0.8165,1 -1.0591,1 -0.2425,0 -0.4409,-0.45 -0.4409,-1 z m -14,-2 c 0.825,-0.53316 1.95,-0.96937 2.5,-0.96937 0.55,0 0.325,0.43621 -0.5,0.96937 -0.825,0.53316 -1.95,0.96937 -2.5,0.96937 -0.55,0 -0.325,-0.43621 0.5,-0.96937 z m 6.5748,-0.8789 c -0.3098,-0.50134 0.1091,-1.16956 0.9309,-1.48493 0.8218,-0.31537 1.4943,-0.16408 1.4943,0.3362 0,1.35555 -1.7771,2.19731 -2.4252,1.14873 z m -3.5748,-8.6211 c 0,-0.825 0.6608,-1.5 1.4686,-1.5 0.9618,0 1.2604,-0.60394 0.8654,-1.75 -0.4859,-1.41008 -0.3017,-1.36207 0.9487,0.24717 1.1012,1.4171 1.2499,2.36103 0.5121,3.25 -1.434,1.72793 -3.7948,1.57417 -3.7948,-0.24717 z m -2,-3.5 c 0,-0.55 0.45,-1 1,-1 0.55,0 1,0.45 1,1 0,0.55 -0.45,1 -1,1 -0.55,0 -1,-0.45 -1,-1 z m 7.5427,0.0691 c -0.3165,-0.512 -0.1652,-1.18441 0.3362,-1.49426 0.5013,-0.30984 1.1695,0.10906 1.4849,0.9309 0.6217,1.62013 -0.8808,2.0849 -1.8211,0.56336 z m 4.2073,-2.85652 c -0.9625,-0.19758 -1.75,-0.76211 -1.75,-1.25452 0,-0.49241 0.6169,-0.65855 1.3709,-0.3692 0.754,0.28934 1.6399,-0.17478 1.9686,-1.03139 0.7645,-1.99222 3.6605,-2.03769 3.6605,-0.0575 0,0.825 -0.6375,1.5 -1.4167,1.5 -0.7792,0 -1.5667,0.35365 -1.75,0.7859 -0.1833,0.43224 -1.1208,0.62425 -2.0833,0.42668 z m 3.25,-14.7716 c 0,-0.85746 0.45,-1.2809 1,-0.94098 0.55,0.33992 1,1.04148 1,1.55902 0,0.51754 -0.45,0.94098 -1,0.94098 -0.55,0 -1,-0.70156 -1,-1.55902 z m -5.25,-29.13028 c -2.3957,-0.6261 -2.2134,-2.3107 0.25,-2.3107 1.1111,0 2,0.6667 2,1.5 0,0.825 -0.1125,1.4478 -0.25,1.384 -0.1375,-0.0638 -1.0375,-0.3218 -2,-0.5733 z m 93.75,81.6893 c 0.3399,-0.55 -0.1101,-1 -1,-1 -0.89,0 -1.34,0.45 -1,1 0.3399,0.55 0.7899,1 1,1 0.21,0 0.66,-0.45 1,-1 z m 15,-0.50951 c 14.9629,-4.45258 24.7087,-13.91561 29.8396,-28.97377 2.3632,-6.93582 2.2282,-11.51672 -0.3396,-11.51672 -1.1,0 -2,-0.35066 -2,-0.77924 0,-0.42858 0.9,-1.42792 2,-2.22076 1.1,-0.79284 2,-2.19403 2,-3.11377 0,-1.90016 -3.2747,-3.5624 -3.8164,-1.93723 -0.4076,1.22283 -2.1836,0.40297 -2.1836,-1.00802 0,-0.51754 1.0984,-0.94098 2.4409,-0.94098 2.9741,0 3.9372,-1.35715 3.1602,-4.4531 -0.527,-2.09959 -0.9437,-2.25902 -4.0646,-1.55513 -2.4002,0.54131 -3.7992,0.39671 -4.5158,-0.46674 -0.7968,-0.96009 -0.4534,-1.13924 1.4763,-0.77035 2.8822,0.55096 5.503,-1.21112 5.503,-3.69991 0,-3.36253 -5.8475,-13.6773 -10.1303,-17.86934 -5.7195,-5.59843 -16.7305,-10.98483 -24.1625,-11.81993 l -5.7927,-0.6509 0.2927,8.2459 0.2928,8.24597 4.8887,1.85278 c 2.6888,1.01903 6.0124,2.88508 7.3858,4.14677 3.5072,3.22187 9.4383,12.64064 8.706,13.82542 -1.3797,2.23238 0.6349,4.96856 3.6583,4.96856 1.6522,0 3.639,0.63494 4.415,1.41098 0.805,0.80505 2.3446,1.16684 3.5849,0.84248 1.492,-0.39017 1.9496,-0.20539 1.4586,0.58902 -0.7947,1.28581 -9.6535,1.59642 -11.1473,0.39085 -0.5225,-0.42166 -0.89,-0.62413 -0.8166,-0.44993 0.073,0.1742 -0.2396,1.97033 -0.6954,3.99141 -0.5769,2.55769 -0.4654,3.90567 0.3666,4.43462 0.8821,0.5608 0.8394,0.76396 -0.163,0.77526 -0.948,0.0107 -1.1689,0.77065 -0.731,2.51531 0.3451,1.375 0.219,2.5 -0.2803,2.5 -0.4993,0 -1.199,1.55235 -1.5549,3.44966 -0.9645,5.14131 -10.5,13.51941 -15.4398,13.56565 -1.4228,0.0133 -1.4404,0.14346 -0.1356,1 1.0466,0.68707 1.1629,1.21137 0.3847,1.73469 -1.6573,1.1146 -2.6212,4.98581 -1.4254,5.72486 1.5588,0.9634 1.2543,2.82111 -0.3608,2.20133 -1.3983,-0.53658 -2.5567,1.96132 -2.5849,5.57381 -0.017,2.21114 3.5862,2.29378 10.4864,0.24049 z m 8,-21.49049 c -0.34,-0.55 -0.1415,-1 0.4409,-1 0.5825,0 1.0591,0.45 1.0591,1 0,0.55 -0.1985,1 -0.441,1 -0.2426,0 -0.7191,-0.45 -1.059,-1 z m 4.5,-21 c 0,-0.55 0.45,-1 1,-1 0.55,0 1,0.45 1,1 0,0.55 -0.45,1 -1,1 -0.55,0 -1,-0.45 -1,-1 z m 3.25,-10.70573 c -1.2375,-0.23836 -2.25,-0.83795 -2.25,-1.33244 0,-0.49448 0.6634,-0.64448 1.4743,-0.33332 0.8108,0.31116 2.2173,-0.17725 3.1254,-1.08535 1.5348,-1.53479 1.7831,-1.50936 3.5257,0.36106 1.031,1.10668 1.8746,2.25597 1.8746,2.55397 0,0.59951 -4.2535,0.50954 -7.75,-0.16392 z m -36.25,51.59732 c 0,-1.76595 -0.4182,-2.00344 -2.5748,-1.46219 -2.2012,0.55247 -2.3825,0.43774 -1.25,-0.79073 0.7286,-0.79032 1.5138,-1.25576 1.7449,-1.0343 0.2311,0.22145 1.3996,-0.23905 2.5965,-1.02334 2.0642,-1.35249 2.1574,-1.28824 1.8085,1.24649 -0.3579,2.60003 -0.3404,2.60974 0.645,0.35824 0.5571,-1.27284 1.4668,-2.03378 2.0214,-1.69099 1.3856,0.85634 1.274,-0.82928 -0.1492,-2.25239 -0.8768,-0.87682 -0.8495,-1.52887 0.1127,-2.68817 1.0475,-1.26225 0.9775,-1.64288 -0.3999,-2.17142 -0.9185,-0.35248 -1.4333,-1.25781 -1.144,-2.01183 0.3234,-0.84278 -0.1552,-1.37096 -1.2424,-1.37096 -3.1156,0 -9.7329,-5.0821 -12.4289,-9.54548 -1.4379,-2.38056 -3.1649,-7.1692 -3.8377,-10.64141 -0.6728,-3.47221 -1.6491,-6.59436 -2.1695,-6.93811 -0.5692,-0.37599 -0.5052,-0.89752 0.1606,-1.30902 0.6087,-0.37621 1.1116,-2.11996 1.1176,-3.875 0.015,-4.40276 2.5017,-12.1977 5.0194,-15.73344 1.1529,-1.61914 1.7733,-3.46649 1.3785,-4.10522 -0.4616,-0.74694 -0.2794,-0.89041 0.5108,-0.40206 0.7174,0.44339 2.1523,-0.10855 3.4489,-1.32666 1.2212,-1.14727 4.0004,-2.7009 6.176,-3.45253 l 3.9556,-1.36659 0.2927,-8.29498 0.2928,-8.2949 -5.7928,0.6573 c -7.0689,0.8021 -16.3967,5.207 -22.6125,10.67833 -5.6307,4.95637 -11.301,15.87813 -12.6938,24.44977 -0.9937,6.11595 -1.242,19.02565 -0.3221,16.74377 0.645,-1.59987 2.3357,-0.60511 2.3357,1.37426 0,0.825 -0.45,1.22189 -1,0.88197 -0.55,-0.33992 -1,0.33554 -1,1.50103 0,2.19186 1.5324,2.27751 7.75,0.43315 1.6807,-0.49857 2.25,-0.25841 2.25,0.94919 0,1.00579 -0.8502,1.62179 -2.25,1.63028 -1.2375,0.008 -3.2066,0.27037 -4.3757,0.58413 -1.8383,0.49334 -2.0165,0.99855 -1.3176,3.73635 1.5553,6.09233 2.1834,7.66587 3.0599,7.66587 0.4858,0 0.8834,0.68912 0.8834,1.53138 0,0.84227 0.675,1.79041 1.5,2.10699 0.825,0.31659 1.5,1.14088 1.5,1.83178 0,1.62729 8.8018,9.85891 12.694,11.87163 1.9827,1.02527 3.3456,1.21862 3.9971,0.56706 0.6516,-0.65157 1.8105,-0.30447 3.3988,1.01797 3.2203,2.68125 5.9101,2.66522 5.9101,-0.0352 z m -16.7982,-9.94001 c -1.2615,-2.01995 -1.2405,-2.02415 1.5095,-0.30266 1.5337,0.96017 2.9762,1.88196 3.2053,2.04842 0.2292,0.16646 -0.4501,0.30266 -1.5094,0.30266 -1.0594,0 -2.5018,-0.92179 -3.2054,-2.04842 z m 14.4793,0.39619 c -0.283,-0.28294 0.3855,-1.41444 1.4855,-2.51444 1.1,-1.1 2.3,-1.67589 2.6667,-1.27976 0.3667,0.39613 0.1014,0.92207 -0.5896,1.16874 -0.6909,0.24668 -1.031,0.81292 -0.7557,1.25832 0.5638,0.91232 -2.0087,2.16533 -2.8069,1.36714 z m -20.9478,-2.47186 c 0.6783,-0.68342 1.4852,-0.99067 1.7931,-0.68278 0.3079,0.30789 -0.2471,0.86705 -1.2333,1.24258 -1.4252,0.54268 -1.5401,0.42782 -0.5598,-0.5598 z m 12.9333,0.45742 c -0.9557,-0.95569 -0.822,-2.33333 0.2264,-2.33333 0.4911,0 1.152,0.675 1.4686,1.5 0.5849,1.52428 -0.4803,2.04799 -1.695,0.83333 z m -16.0153,-13.79957 c -0.7625,-1.98701 -0.3015,-2.94246 1.152,-2.38793 0.5106,0.1948 0.6174,1.22127 0.2374,2.28106 -0.6566,1.83086 -0.7258,1.83619 -1.3894,0.10687 z m -5.6513,-0.10519 c 0,-1.36079 2.9074,-3.38733 3.4952,-2.43624 0.3426,0.55422 0.1197,1.00767 -0.4952,1.00767 -0.615,0 -0.84,0.45 -0.5,1 0.3399,0.55 -0.083,1 -0.941,1 -0.8575,0 -1.559,-0.25714 -1.559,-0.57143 z m 12,-3.2899 c 0,-0.47373 -1.2375,-0.69666 -2.75,-0.4954 l -2.75,0.36592 2.783,-1.09892 c 2.9531,-1.16611 5.717,-0.65445 5.717,1.05835 0,0.56726 -0.675,1.03138 -1.5,1.03138 -0.825,0 -1.5,-0.3876 -1.5,-0.86133 z m -4,-4.13867 c 0,-0.55 0.45,-1 1,-1 0.55,0 1,0.45 1,1 0,0.55 -0.45,1 -1,1 -0.55,0 -1,-0.45 -1,-1 z m -4.25,-7.04583 c 0.6875,-0.74479 1.25,-2.11603 1.25,-3.04718 0,-2.55069 2.6054,-3.03864 5.9778,-1.11954 1.6553,0.9419 3.0124,1.99757 3.0158,2.34592 0.011,1.13242 -4.3581,1.80908 -5.5097,0.85326 -0.7164,-0.59456 -1.9968,-0.34366 -3.5521,0.69602 -1.3739,0.91848 -1.8881,1.0366 -1.1818,0.27152 z m -282.5169,-81.57767 0.2669,-25.5634 3.9167,-1.3461 c 5.2582,-1.807 8.2406,-5.0414 9.6843,-10.5023 1.1028,-4.1718 1.0108,-4.8221 -1.1481,-8.1157 -2.789,-4.2546 -7.7187,-7.849 -10.7648,-7.849 l -2.1881,0 0,-23.941 c 0,-13.1675 0.3375,-24.1425 0.75,-24.3888 0.9027,-0.539 17.9187,1.8113 20.75,2.8661 23.0795,8.5984 40.7353,27.4707 44.9955,48.0958 2.0028,9.6963 1.8996,13.9796 -0.5709,23.7013 -5.1338,20.2012 -17.4937,36.2025 -34.728,44.959 -5.096,2.5892 -10.0599,4.7076 -11.031,4.7076 -0.9711,0 -2.1931,0.3923 -2.7156,0.8718 -0.5225,0.4795 -4.6701,1.141 -9.2169,1.47 l -8.2668,0.5982 0.2668,-25.5635 z m 356.7481,-485.3881 c -1.9948,-1.2328 -0.5098,-2.3836 1.5722,-1.2184 0.9369,0.5243 1.2866,1.2108 0.7772,1.5256 -0.5094,0.3148 -1.5666,0.1766 -2.3494,-0.3072 z"
         transform="matrix(0.43500135,0,0,0.43500135,-950.78627,1150.7722)"
         clip-path="url(#clipPath4446-2)"
         id="path4442"
         style="fill:#05484d;fill-opacity:1" />
      <g
         transform="matrix(0.88177748,0,0,0.88177748,-916.82927,152.45041)"
         id="shape14-6-2"
         style="fill:#ff0000;fill-opacity:0.10416667">
        <path
           d="m 1093.6293,180.74787 c -5.786,-5.83673 -12.79,-8.72972 -20.9614,-8.72972 l -460.94943,0 490.64053,490.64047 0,-350.15295 0,-50.75416 0,-8.17142 0,-51.87076 q 0,-12.2825 -8.7297,-20.96146 z"
           id="path9-9-5"
           style="fill:#ffffff;fill-opacity:0.10416667" />
      </g>
    </g>
  </g>
</svg>
