<?xml version="1.0" encoding="UTF-8" standalone="no"?>
<!-- Created with Inkscape (http://www.inkscape.org/) -->

<svg
   xmlns:dc="http://purl.org/dc/elements/1.1/"
   xmlns:cc="http://creativecommons.org/ns#"
   xmlns:rdf="http://www.w3.org/1999/02/22-rdf-syntax-ns#"
   xmlns:svg="http://www.w3.org/2000/svg"
   xmlns="http://www.w3.org/2000/svg"
   version="1.1"
   width="818.38715"
   height="806.14368"
   id="svg3117">
  <defs
     id="defs3119" />
  <metadata
     id="metadata3122">
    <rdf:RDF>
      <cc:Work
         rdf:about="">
        <dc:format>image/svg+xml</dc:format>
        <dc:type
           rdf:resource="http://purl.org/dc/dcmitype/StillImage" />
        <dc:title></dc:title>
      </cc:Work>
    </rdf:RDF>
  </metadata>
  <g
     transform="translate(24.660503,-37.371672)"
     id="layer1">
    <g
       transform="translate(978.9529,-164.14409)"
       id="g3151">
      <rect
         width="818.38715"
         height="806.14368"
         ry="30.273775"
         x="185.22626"
         y="201.51576"
         transform="scale(-1,1)"
         id="rect5168-9"
         style="fill:#04555c;fill-opacity:1;stroke:none" />
      <path
         d="m -215.48904,201.52979 c 16.77167,0 30.25694,13.48527 30.25694,30.25694 l 0,252.03324 -8.24119,7.74083 -180.27603,317.5507 -75.34802,40.3524 -59.21883,-61.89722 -145.30984,-349.80907 -80.73422,-40.38183 c 0,0 -110.31001,34.98301 -123.76501,37.67401 -13.45501,2.691 -110.33103,-16.12919 -131.85904,-16.12919 -3.3813,0 -8.09116,-0.93494 -13.62742,-2.50179 l 0,-184.63208 c 0,-16.77167 13.51473,-30.25694 30.2864,-30.25694 l 757.83626,0 z"
         id="path5647"
         style="fill:#088f9d;fill-opacity:1;stroke:none" />
      <path
         d="M -157.29177,431.95057 C -347.57425,812.51554 -438.90984,922.87938 -507.41154,778.26469 -575.91324,633.65 -636.21067,361.66875 -766.19572,412.92232 c -163.49129,64.4652 -268.70398,-16.14601 -268.70398,-16.14601"
         id="path5645"
         style="fill:none;stroke:#ffffff;stroke-width:39.58125687;stroke-linecap:butt;stroke-linejoin:miter;stroke-miterlimit:4;stroke-opacity:1;stroke-dasharray:none" />
      <path
         d="m -438.91358,1008.2803 0,-172.94416 -566.46572,0"
         id="path5662"
         style="fill:none;stroke:#ff5800;stroke-width:24.28499985;stroke-linecap:butt;stroke-linejoin:miter;stroke-miterlimit:4;stroke-opacity:1;stroke-dasharray:72.855, 24.285;stroke-dashoffset:9.71399837" />
      <path
         d="m -192.35498,208.74444 c -5.02613,-5.07022 -11.1104,-7.58328 -18.20871,-7.58328 l -400.41515,0 426.20714,426.20714 0,-304.16914 0,-44.08887 0,-7.09831 0,-45.05883 q 0,-10.66951 -7.58328,-18.20871 z"
         id="path9-9-5-7"
         style="fill:#ffffff;fill-opacity:0.10416667" />
    </g>
  </g>
</svg>
